<svg xmlns="http://www.w3.org/2000/svg" xmlns:xlink="http://www.w3.org/1999/xlink" xmlns:lucid="lucid" width="1028.33" height="1080"><g transform="translate(-321.66666666666663 1120)" lucid:page-tab-id="0_0"><path d="M0-1258.83h1870.87V64H0z" fill="#fff"/><path d="M341.67-380h350v40h-350z" fill="#f4d9ff"/><path d="M341.67-340h175v40h-175z" fill="#fbf0ff"/><path d="M516.67-340h175v40h-175zM341.67-300h175v40h-175z" fill="#fbf0ff"/><path d="M516.67-300h175v40h-175zM341.67-260h175v40h-175z" fill="#fbf0ff"/><path d="M516.67-260h175v40h-175zM341.67-220h175v40h-175z" fill="#fbf0ff"/><path d="M516.67-220h175v40h-175zM341.67-180h175v40h-175z" fill="#fbf0ff"/><path d="M516.67-180h175v40h-175zM341.67-140h175v40h-175z" fill="#fbf0ff"/><path d="M516.67-140h175v40h-175zM341.67-100h175v40h-175z" fill="#fbf0ff"/><path d="M516.67-100h175v40h-175z" fill="#fbf0ff"/><path d="M341.67-380v40M691.67-380v40M341.67-340v40M516.67-340v40M691.67-340v40M341.67-300v40M516.67-300v40M691.67-300v40M341.67-260v40M516.67-260v40M691.67-260v40M341.67-220v40M516.67-220v40M691.67-220v40M341.67-180v40M516.67-180v40M691.67-180v40M341.67-140v40M516.67-140v40M691.67-140v40M341.67-100v40M516.67-100v40M691.67-100v40M341.67-380h350M341.67-340h175M516.67-340h175M341.67-300h175M516.67-300h175M341.67-260h175M516.67-260h175M341.67-220h175M516.67-220h175M341.67-180h175M516.67-180h175M341.67-140h175M516.67-140h175M341.67-100h175M341.67-60h175M516.67-100h175M516.67-60h175" stroke="#e08fff" fill="none"/><use xlink:href="#a" transform="matrix(1,0,0,1,346.66666666666663,-375) translate(136.55 18.6)"/><use xlink:href="#b" transform="matrix(1,0,0,1,346.66666666666663,-335) translate(75.525 18.6)"/><use xlink:href="#c" transform="matrix(1,0,0,1,521.6666666666666,-335) translate(70.5 18.6)"/><use xlink:href="#d" transform="matrix(1,0,0,1,346.66666666666663,-295) translate(19.574999999999996 18.6)"/><use xlink:href="#e" transform="matrix(1,0,0,1,521.6666666666666,-295) translate(36.599999999999994 18.6)"/><use xlink:href="#f" transform="matrix(1,0,0,1,346.66666666666663,-255) translate(21.574999999999996 18.6)"/><use xlink:href="#e" transform="matrix(1,0,0,1,521.6666666666666,-255) translate(36.599999999999994 18.6)"/><use xlink:href="#g" transform="matrix(1,0,0,1,346.66666666666663,-215) translate(56.55 18.6)"/><use xlink:href="#h" transform="matrix(1,0,0,1,521.6666666666666,-215) translate(73.025 18.6)"/><use xlink:href="#i" transform="matrix(1,0,0,1,346.66666666666663,-175) translate(68.025 18.6)"/><use xlink:href="#h" transform="matrix(1,0,0,1,521.6666666666666,-175) translate(73.025 18.6)"/><use xlink:href="#j" transform="matrix(1,0,0,1,346.66666666666663,-135) translate(66 18.6)"/><use xlink:href="#h" transform="matrix(1,0,0,1,521.6666666666666,-135) translate(73.025 18.6)"/><use xlink:href="#k" transform="matrix(1,0,0,1,346.66666666666663,-95) translate(65.025 18.6)"/><use xlink:href="#h" transform="matrix(1,0,0,1,521.6666666666666,-95) translate(73.025 18.6)"/><path d="M341.67-720h350v40h-350z" fill="#f4d9ff"/><path d="M341.67-680h179v40h-179z" fill="#fbf0ff"/><path d="M520.67-680h171v40h-171zM341.67-640h179v40h-179z" fill="#fbf0ff"/><path d="M520.67-640h171v40h-171zM341.67-600h179v40h-179z" fill="#fbf0ff"/><path d="M520.67-600h171v40h-171zM341.67-560h179v40h-179z" fill="#fbf0ff"/><path d="M520.67-560h171v40h-171z" fill="#fbf0ff"/><path d="M341.67-720v40M691.67-720v40M341.67-680v40M520.67-680v40M691.67-680v40M341.67-640v40M520.67-640v40M691.67-640v40M341.67-600v40M520.67-600v40M691.67-600v40M341.67-560v40M520.67-560v40M691.67-560v40M341.67-720h350M341.67-680h179M520.67-680h171M341.67-640h179M520.67-640h171M341.67-600h179M520.67-600h171M341.67-560h179M341.67-520h179M520.67-560h171M520.67-520h171" stroke="#e08fff" fill="none"/><use xlink:href="#l" transform="matrix(1,0,0,1,346.66666666666663,-715) translate(113.07499999999999 18.6)"/><use xlink:href="#b" transform="matrix(1,0,0,1,346.66666666666663,-675) translate(77.525 18.6)"/><use xlink:href="#c" transform="matrix(1,0,0,1,525.6666666666666,-675) translate(68.5 18.6)"/><use xlink:href="#m" transform="matrix(1,0,0,1,346.66666666666663,-635) translate(55.05 18.6)"/><use xlink:href="#e" transform="matrix(1,0,0,1,525.6666666666666,-635) translate(34.599999999999994 18.6)"/><use xlink:href="#n" transform="matrix(1,0,0,1,346.66666666666663,-595) translate(39.074999999999996 18.6)"/><use xlink:href="#e" transform="matrix(1,0,0,1,525.6666666666666,-595) translate(34.599999999999994 18.6)"/><use xlink:href="#o" transform="matrix(1,0,0,1,346.66666666666663,-555) translate(33.55 18.6)"/><use xlink:href="#e" transform="matrix(1,0,0,1,525.6666666666666,-555) translate(34.599999999999994 18.6)"/><path d="M521.36-400.5l.64-35-1-83" stroke="#92c3be" stroke-width="2" stroke-linejoin="round" fill="none"/><path d="M511-381.13l10.37-19.8 9.63 20.16" stroke="#92c3be" stroke-width="2" fill="#fff" fill-opacity="0"/><path d="M521-380.95l.37-20M531.37-400.76l-20-.37" stroke="#92c3be" stroke-width="2" fill="#fff"/><path d="M522-518.5l-2 .04v-1.04h2z" stroke="#92c3be" stroke-width=".05" fill="#92c3be"/><path d="M341.67-1100h350v40h-350z" fill="#f4d9ff"/><path d="M341.67-1060h175v40h-175z" fill="#fbf0ff"/><path d="M516.67-1060h175v40h-175zM341.67-1020h175v40h-175z" fill="#fbf0ff"/><path d="M516.67-1020h175v40h-175zM341.67-980h175v40h-175z" fill="#fbf0ff"/><path d="M516.67-980h175v40h-175zM341.67-940h175v40h-175z" fill="#fbf0ff"/><path d="M516.67-940h175v40h-175zM341.67-900h175v40h-175z" fill="#fbf0ff"/><path d="M516.67-900h175v40h-175zM341.67-860h175v40h-175z" fill="#fbf0ff"/><path d="M516.67-860h175v40h-175z" fill="#fbf0ff"/><path d="M341.67-1100v40M691.67-1100v40M341.67-1060v40M516.67-1060v40M691.67-1060v40M341.67-1020v40M516.67-1020v40M691.67-1020v40M341.67-980v40M516.67-980v40M691.67-980v40M341.67-940v40M516.67-940v40M691.67-940v40M341.67-900v40M516.67-900v40M691.67-900v40M341.67-860v40M516.67-860v40M691.67-860v40M341.67-1100h350M341.67-1060h175M516.67-1060h175M341.67-1020h175M516.67-1020h175M341.67-980h175M516.67-980h175M341.67-940h175M516.67-940h175M341.67-900h175M516.67-900h175M341.67-860h175M341.67-820h175M516.67-860h175M516.67-820h175" stroke="#e08fff" fill="none"/><use xlink:href="#p" transform="matrix(1,0,0,1,346.66666666666663,-1095) translate(152.525 18.6)"/><use xlink:href="#b" transform="matrix(1,0,0,1,346.66666666666663,-1055) translate(75.525 18.6)"/><use xlink:href="#c" transform="matrix(1,0,0,1,521.6666666666666,-1055) translate(70.5 18.6)"/><use xlink:href="#q" transform="matrix(1,0,0,1,346.66666666666663,-1015) translate(13.599999999999994 18.6)"/><use xlink:href="#e" transform="matrix(1,0,0,1,521.6666666666666,-1015) translate(36.599999999999994 18.6)"/><use xlink:href="#r" transform="matrix(1,0,0,1,346.66666666666663,-975) translate(40.575 18.6)"/><use xlink:href="#e" transform="matrix(1,0,0,1,521.6666666666666,-975) translate(36.599999999999994 18.6)"/><use xlink:href="#s" transform="matrix(1,0,0,1,346.66666666666663,-935) translate(41.05 18.6)"/><use xlink:href="#e" transform="matrix(1,0,0,1,521.6666666666666,-935) translate(36.599999999999994 18.6)"/><use xlink:href="#t" transform="matrix(1,0,0,1,346.66666666666663,-895) translate(61.074999999999996 18.6)"/><use xlink:href="#e" transform="matrix(1,0,0,1,521.6666666666666,-895) translate(36.599999999999994 18.6)"/><use xlink:href="#u" transform="matrix(1,0,0,1,346.66666666666663,-855) translate(44.05 18.6)"/><use xlink:href="#e" transform="matrix(1,0,0,1,521.6666666666666,-855) translate(36.599999999999994 18.6)"/><path d="M516.67-740.5v-78" stroke="#92c3be" stroke-width="2" stroke-linejoin="round" fill="none"/><path d="M526.67-730.5h-20M516.67-720.5v-20M526.67-740.5h-20" stroke="#92c3be" stroke-width="2" fill="#fff"/><path d="M517.67-818.47h-2v-1.03h2z" stroke="#92c3be" stroke-width=".05" fill="#92c3be"/><path d="M980-780h350v40H980z" fill="#f4d9ff"/><path d="M980-740h175v40H980zM1155-740h175v40h-175zM980-700h175v40H980zM1155-700h175v40h-175zM980-660h175v40H980zM1155-660h175v40h-175zM980-620h175v40H980zM1155-620h175v40h-175zM980-580h175v40H980zM1155-580h175v40h-175zM980-540h175v40H980zM1155-540h175v40h-175zM980-500h175v40H980zM1155-500h175v40h-175z" fill="#fbf0ff"/><path d="M980-780v40M1330-780v40M980-740v40M1155-740v40M1330-740v40M980-700v40M1155-700v40M1330-700v40M980-660v40M1155-660v40M1330-660v40M980-620v40M1155-620v40M1330-620v40M980-580v40M1155-580v40M1330-580v40M980-540v40M1155-540v40M1330-540v40M980-500v40M1155-500v40M1330-500v40M980-780h350M980-740h175M1155-740h175M980-700h175M1155-700h175M980-660h175M1155-660h175M980-620h175M1155-620h175M980-580h175M1155-580h175M980-540h175M1155-540h175M980-500h175M980-460h175M1155-500h175M1155-460h175" stroke="#e08fff" fill="none"/><use xlink:href="#v" transform="matrix(1,0,0,1,985,-775) translate(112.05 18.6)"/><use xlink:href="#b" transform="matrix(1,0,0,1,985,-735) translate(75.525 18.6)"/><use xlink:href="#c" transform="matrix(1,0,0,1,1160,-735) translate(70.5 18.6)"/><use xlink:href="#w" transform="matrix(1,0,0,1,985,-695) translate(60.025 18.6)"/><use xlink:href="#e" transform="matrix(1,0,0,1,1160,-695) translate(36.599999999999994 18.6)"/><use xlink:href="#x" transform="matrix(1,0,0,1,985,-655) translate(26.074999999999996 18.6)"/><use xlink:href="#e" transform="matrix(1,0,0,1,1160,-655) translate(36.599999999999994 18.6)"/><use xlink:href="#y" transform="matrix(1,0,0,1,985,-615) translate(27.574999999999996 18.6)"/><use xlink:href="#e" transform="matrix(1,0,0,1,1160,-615) translate(36.599999999999994 18.6)"/><use xlink:href="#z" transform="matrix(1,0,0,1,985,-575) translate(64.05 18.6)"/><use xlink:href="#h" transform="matrix(1,0,0,1,1160,-575) translate(73.025 18.6)"/><use xlink:href="#A" transform="matrix(1,0,0,1,985,-535) translate(34.55 18.6)"/><use xlink:href="#e" transform="matrix(1,0,0,1,1160,-535) translate(36.599999999999994 18.6)"/><use xlink:href="#B" transform="matrix(1,0,0,1,985,-495) translate(18.549999999999997 18.6)"/><use xlink:href="#e" transform="matrix(1,0,0,1,1160,-495) translate(36.599999999999994 18.6)"/><defs><path d="M100-194c63 0 86 42 84 106H49c0 40 14 67 53 68 26 1 43-12 49-29l28 8c-11 28-37 45-77 45C44 4 14-33 15-96c1-61 26-98 85-98zm52 81c6-60-76-77-97-28-3 7-6 17-6 28h103" id="C"/><path d="M141 0L90-78 38 0H4l68-98-65-92h35l48 74 47-74h35l-64 92 68 98h-35" id="D"/><path d="M114-163C36-179 61-72 57 0H25l-1-190h30c1 12-1 29 2 39 6-27 23-49 58-41v29" id="E"/><path d="M96-169c-40 0-48 33-48 73s9 75 48 75c24 0 41-14 43-38l32 2c-6 37-31 61-74 61-59 0-76-41-82-99-10-93 101-131 147-64 4 7 5 14 7 22l-32 3c-4-21-16-35-41-35" id="F"/><path d="M24-231v-30h32v30H24zM24 0v-190h32V0H24" id="G"/><path d="M135-143c-3-34-86-38-87 0 15 53 115 12 119 90S17 21 10-45l28-5c4 36 97 45 98 0-10-56-113-15-118-90-4-57 82-63 122-42 12 7 21 19 24 35" id="H"/><g id="a"><use transform="matrix(0.05,0,0,0.05,0,0)" xlink:href="#C"/><use transform="matrix(0.05,0,0,0.05,10,0)" xlink:href="#D"/><use transform="matrix(0.05,0,0,0.05,19,0)" xlink:href="#C"/><use transform="matrix(0.05,0,0,0.05,29,0)" xlink:href="#E"/><use transform="matrix(0.05,0,0,0.05,34.95,0)" xlink:href="#F"/><use transform="matrix(0.05,0,0,0.05,43.95,0)" xlink:href="#G"/><use transform="matrix(0.05,0,0,0.05,47.900000000000006,0)" xlink:href="#H"/><use transform="matrix(0.05,0,0,0.05,56.900000000000006,0)" xlink:href="#C"/></g><path d="M85-194c31 0 48 13 60 33l-1-100h32l1 261h-30c-2-10 0-23-3-31C134-8 116 4 85 4 32 4 16-35 15-94c0-66 23-100 70-100zm9 24c-40 0-46 34-46 75 0 40 6 74 45 74 42 0 51-32 51-76 0-42-9-74-50-73" id="I"/><g id="b"><use transform="matrix(0.05,0,0,0.05,0,0)" xlink:href="#G"/><use transform="matrix(0.05,0,0,0.05,3.95,0)" xlink:href="#I"/></g><path d="M30-248c87 1 191-15 191 75 0 78-77 80-158 76V0H30v-248zm33 125c57 0 124 11 124-50 0-59-68-47-124-48v98" id="J"/><path d="M194 0L95-120 63-95V0H30v-248h33v124l119-124h40L117-140 236 0h-42" id="K"/><g id="c"><use transform="matrix(0.05,0,0,0.05,0,0)" xlink:href="#J"/><use transform="matrix(0.05,0,0,0.05,12,0)" xlink:href="#K"/></g><path d="M206 0h-36l-40-164L89 0H53L-1-190h32L70-26l43-164h34l41 164 42-164h31" id="L"/><path d="M100-194c62-1 85 37 85 99 1 63-27 99-86 99S16-35 15-95c0-66 28-99 85-99zM99-20c44 1 53-31 53-75 0-43-8-75-51-75s-53 32-53 75 10 74 51 75" id="M"/><path d="M143 0L79-87 56-68V0H24v-261h32v163l83-92h37l-77 82L181 0h-38" id="N"/><path d="M84 4C-5 8 30-112 23-190h32v120c0 31 7 50 39 49 72-2 45-101 50-169h31l1 190h-30c-1-10 1-25-2-33-11 22-28 36-60 37" id="O"/><path d="M59-47c-2 24 18 29 38 22v24C64 9 27 4 27-40v-127H5v-23h24l9-43h21v43h35v23H59v120" id="P"/><path d="M-5 72V49h209v23H-5" id="Q"/><path d="M141-36C126-15 110 5 73 4 37 3 15-17 15-53c-1-64 63-63 125-63 3-35-9-54-41-54-24 1-41 7-42 31l-33-3c5-37 33-52 76-52 45 0 72 20 72 64v82c-1 20 7 32 28 27v20c-31 9-61-2-59-35zM48-53c0 20 12 33 32 33 41-3 63-29 60-74-43 2-92-5-92 41" id="R"/><path d="M179-190L93 31C79 59 56 82 12 73V49c39 6 53-20 64-50L1-190h34L92-34l54-156h33" id="S"/><g id="d"><use transform="matrix(0.05,0,0,0.05,0,0)" xlink:href="#L"/><use transform="matrix(0.05,0,0,0.05,12.950000000000001,0)" xlink:href="#M"/><use transform="matrix(0.05,0,0,0.05,22.950000000000003,0)" xlink:href="#E"/><use transform="matrix(0.05,0,0,0.05,28.900000000000002,0)" xlink:href="#N"/><use transform="matrix(0.05,0,0,0.05,37.900000000000006,0)" xlink:href="#M"/><use transform="matrix(0.05,0,0,0.05,47.900000000000006,0)" xlink:href="#O"/><use transform="matrix(0.05,0,0,0.05,57.900000000000006,0)" xlink:href="#P"/><use transform="matrix(0.05,0,0,0.05,62.900000000000006,0)" xlink:href="#Q"/><use transform="matrix(0.05,0,0,0.05,72.9,0)" xlink:href="#I"/><use transform="matrix(0.05,0,0,0.05,82.9,0)" xlink:href="#R"/><use transform="matrix(0.05,0,0,0.05,92.9,0)" xlink:href="#S"/><use transform="matrix(0.05,0,0,0.05,101.9,0)" xlink:href="#Q"/><use transform="matrix(0.05,0,0,0.05,111.9,0)" xlink:href="#G"/><use transform="matrix(0.05,0,0,0.05,115.85000000000001,0)" xlink:href="#I"/></g><path d="M108 0H70L1-190h34L89-25l56-165h34" id="T"/><path d="M106-169C34-169 62-67 57 0H25v-261h32l-1 103c12-21 28-36 61-36 89 0 53 116 60 194h-32v-121c2-32-8-49-39-48" id="U"/><path d="M87 75C49 33 22-17 22-94c0-76 28-126 65-167h31c-38 41-64 92-64 168S80 34 118 75H87" id="V"/><path d="M54-142c48-35 137-8 131 61C196 18 31 33 14-55l32-4c7 23 22 37 52 37 35-1 51-22 54-58 4-55-73-65-99-34H22l8-134h141v27H59" id="W"/><path d="M101-251c68 0 85 55 85 127S166 4 100 4C33 4 14-52 14-124c0-73 17-127 87-127zm-1 229c47 0 54-49 54-102s-4-102-53-102c-51 0-55 48-55 102 0 53 5 102 54 102" id="X"/><path d="M33-261c38 41 65 92 65 168S71 34 33 75H2C39 34 66-17 66-93S39-220 2-261h31" id="Y"/><g id="e"><use transform="matrix(0.05,0,0,0.05,0,0)" xlink:href="#T"/><use transform="matrix(0.05,0,0,0.05,9,0)" xlink:href="#R"/><use transform="matrix(0.05,0,0,0.05,19,0)" xlink:href="#E"/><use transform="matrix(0.05,0,0,0.05,24.95,0)" xlink:href="#F"/><use transform="matrix(0.05,0,0,0.05,33.95,0)" xlink:href="#U"/><use transform="matrix(0.05,0,0,0.05,43.95,0)" xlink:href="#R"/><use transform="matrix(0.05,0,0,0.05,53.95,0)" xlink:href="#E"/><use transform="matrix(0.05,0,0,0.05,59.900000000000006,0)" xlink:href="#V"/><use transform="matrix(0.05,0,0,0.05,65.85000000000001,0)" xlink:href="#W"/><use transform="matrix(0.05,0,0,0.05,75.85000000000001,0)" xlink:href="#X"/><use transform="matrix(0.05,0,0,0.05,85.85000000000001,0)" xlink:href="#Y"/></g><path d="M117-194c89-4 53 116 60 194h-32v-121c0-31-8-49-39-48C34-167 62-67 57 0H25l-1-190h30c1 10-1 24 2 32 11-22 29-35 61-36" id="Z"/><path d="M210-169c-67 3-38 105-44 169h-31v-121c0-29-5-50-35-48C34-165 62-65 56 0H25l-1-190h30c1 10-1 24 2 32 10-44 99-50 107 0 11-21 27-35 58-36 85-2 47 119 55 194h-31v-121c0-29-5-49-35-48" id="aa"/><g id="f"><use transform="matrix(0.05,0,0,0.05,0,0)" xlink:href="#C"/><use transform="matrix(0.05,0,0,0.05,10,0)" xlink:href="#D"/><use transform="matrix(0.05,0,0,0.05,19,0)" xlink:href="#C"/><use transform="matrix(0.05,0,0,0.05,29,0)" xlink:href="#E"/><use transform="matrix(0.05,0,0,0.05,34.95,0)" xlink:href="#F"/><use transform="matrix(0.05,0,0,0.05,43.95,0)" xlink:href="#G"/><use transform="matrix(0.05,0,0,0.05,47.900000000000006,0)" xlink:href="#H"/><use transform="matrix(0.05,0,0,0.05,56.900000000000006,0)" xlink:href="#C"/><use transform="matrix(0.05,0,0,0.05,66.9,0)" xlink:href="#Q"/><use transform="matrix(0.05,0,0,0.05,76.9,0)" xlink:href="#Z"/><use transform="matrix(0.05,0,0,0.05,86.9,0)" xlink:href="#R"/><use transform="matrix(0.05,0,0,0.05,96.9,0)" xlink:href="#aa"/><use transform="matrix(0.05,0,0,0.05,111.85000000000001,0)" xlink:href="#C"/></g><path d="M177-190C167-65 218 103 67 71c-23-6-38-20-44-43l32-5c15 47 100 32 89-28v-30C133-14 115 1 83 1 29 1 15-40 15-95c0-56 16-97 71-98 29-1 48 16 59 35 1-10 0-23 2-32h30zM94-22c36 0 50-32 50-73 0-42-14-75-50-75-39 0-46 34-46 75s6 73 46 73" id="ab"/><g id="g"><use transform="matrix(0.05,0,0,0.05,0,0)" xlink:href="#L"/><use transform="matrix(0.05,0,0,0.05,12.950000000000001,0)" xlink:href="#C"/><use transform="matrix(0.05,0,0,0.05,22.950000000000003,0)" xlink:href="#G"/><use transform="matrix(0.05,0,0,0.05,26.900000000000002,0)" xlink:href="#ab"/><use transform="matrix(0.05,0,0,0.05,36.900000000000006,0)" xlink:href="#U"/><use transform="matrix(0.05,0,0,0.05,46.900000000000006,0)" xlink:href="#P"/></g><g id="h"><use transform="matrix(0.05,0,0,0.05,0,0)" xlink:href="#G"/><use transform="matrix(0.05,0,0,0.05,3.95,0)" xlink:href="#Z"/><use transform="matrix(0.05,0,0,0.05,13.949999999999998,0)" xlink:href="#P"/></g><g id="i"><use transform="matrix(0.05,0,0,0.05,0,0)" xlink:href="#O"/><use transform="matrix(0.05,0,0,0.05,10,0)" xlink:href="#Z"/><use transform="matrix(0.05,0,0,0.05,20,0)" xlink:href="#G"/><use transform="matrix(0.05,0,0,0.05,23.95,0)" xlink:href="#P"/></g><g id="j"><use transform="matrix(0.05,0,0,0.05,0,0)" xlink:href="#H"/><use transform="matrix(0.05,0,0,0.05,9,0)" xlink:href="#C"/><use transform="matrix(0.05,0,0,0.05,19,0)" xlink:href="#P"/><use transform="matrix(0.05,0,0,0.05,24,0)" xlink:href="#H"/></g><path d="M115-194c55 1 70 41 70 98S169 2 115 4C84 4 66-9 55-30l1 105H24l-1-265h31l2 30c10-21 28-34 59-34zm-8 174c40 0 45-34 45-75s-6-73-45-74c-42 0-51 32-51 76 0 43 10 73 51 73" id="ac"/><g id="k"><use transform="matrix(0.05,0,0,0.05,0,0)" xlink:href="#E"/><use transform="matrix(0.05,0,0,0.05,5.95,0)" xlink:href="#C"/><use transform="matrix(0.05,0,0,0.05,15.949999999999998,0)" xlink:href="#ac"/><use transform="matrix(0.05,0,0,0.05,25.950000000000003,0)" xlink:href="#H"/></g><path d="M24 0v-261h32V0H24" id="ad"/><g id="l"><use transform="matrix(0.05,0,0,0.05,0,0)" xlink:href="#L"/><use transform="matrix(0.05,0,0,0.05,12.950000000000001,0)" xlink:href="#M"/><use transform="matrix(0.05,0,0,0.05,22.950000000000003,0)" xlink:href="#E"/><use transform="matrix(0.05,0,0,0.05,28.900000000000002,0)" xlink:href="#N"/><use transform="matrix(0.05,0,0,0.05,37.900000000000006,0)" xlink:href="#M"/><use transform="matrix(0.05,0,0,0.05,47.900000000000006,0)" xlink:href="#O"/><use transform="matrix(0.05,0,0,0.05,57.900000000000006,0)" xlink:href="#P"/><use transform="matrix(0.05,0,0,0.05,62.900000000000006,0)" xlink:href="#Q"/><use transform="matrix(0.05,0,0,0.05,72.9,0)" xlink:href="#F"/><use transform="matrix(0.05,0,0,0.05,81.9,0)" xlink:href="#S"/><use transform="matrix(0.05,0,0,0.05,90.9,0)" xlink:href="#F"/><use transform="matrix(0.05,0,0,0.05,99.9,0)" xlink:href="#ad"/><use transform="matrix(0.05,0,0,0.05,103.85000000000001,0)" xlink:href="#C"/></g><g id="m"><use transform="matrix(0.05,0,0,0.05,0,0)" xlink:href="#O"/><use transform="matrix(0.05,0,0,0.05,10,0)" xlink:href="#H"/><use transform="matrix(0.05,0,0,0.05,19,0)" xlink:href="#C"/><use transform="matrix(0.05,0,0,0.05,29,0)" xlink:href="#E"/><use transform="matrix(0.05,0,0,0.05,34.95,0)" xlink:href="#Q"/><use transform="matrix(0.05,0,0,0.05,44.95,0)" xlink:href="#G"/><use transform="matrix(0.05,0,0,0.05,48.900000000000006,0)" xlink:href="#I"/></g><g id="n"><use transform="matrix(0.05,0,0,0.05,0,0)" xlink:href="#C"/><use transform="matrix(0.05,0,0,0.05,10,0)" xlink:href="#D"/><use transform="matrix(0.05,0,0,0.05,19,0)" xlink:href="#C"/><use transform="matrix(0.05,0,0,0.05,29,0)" xlink:href="#E"/><use transform="matrix(0.05,0,0,0.05,34.95,0)" xlink:href="#F"/><use transform="matrix(0.05,0,0,0.05,43.95,0)" xlink:href="#G"/><use transform="matrix(0.05,0,0,0.05,47.900000000000006,0)" xlink:href="#H"/><use transform="matrix(0.05,0,0,0.05,56.900000000000006,0)" xlink:href="#C"/><use transform="matrix(0.05,0,0,0.05,66.9,0)" xlink:href="#Q"/><use transform="matrix(0.05,0,0,0.05,76.9,0)" xlink:href="#G"/><use transform="matrix(0.05,0,0,0.05,80.85000000000001,0)" xlink:href="#I"/></g><g id="o"><use transform="matrix(0.05,0,0,0.05,0,0)" xlink:href="#L"/><use transform="matrix(0.05,0,0,0.05,12.950000000000001,0)" xlink:href="#M"/><use transform="matrix(0.05,0,0,0.05,22.950000000000003,0)" xlink:href="#E"/><use transform="matrix(0.05,0,0,0.05,28.900000000000002,0)" xlink:href="#N"/><use transform="matrix(0.05,0,0,0.05,37.900000000000006,0)" xlink:href="#M"/><use transform="matrix(0.05,0,0,0.05,47.900000000000006,0)" xlink:href="#O"/><use transform="matrix(0.05,0,0,0.05,57.900000000000006,0)" xlink:href="#P"/><use transform="matrix(0.05,0,0,0.05,62.900000000000006,0)" xlink:href="#Q"/><use transform="matrix(0.05,0,0,0.05,72.9,0)" xlink:href="#I"/><use transform="matrix(0.05,0,0,0.05,82.9,0)" xlink:href="#R"/><use transform="matrix(0.05,0,0,0.05,92.9,0)" xlink:href="#S"/></g><g id="p"><use transform="matrix(0.05,0,0,0.05,0,0)" xlink:href="#O"/><use transform="matrix(0.05,0,0,0.05,10,0)" xlink:href="#H"/><use transform="matrix(0.05,0,0,0.05,19,0)" xlink:href="#C"/><use transform="matrix(0.05,0,0,0.05,29,0)" xlink:href="#E"/></g><g id="q"><use transform="matrix(0.05,0,0,0.05,0,0)" xlink:href="#L"/><use transform="matrix(0.05,0,0,0.05,12.950000000000001,0)" xlink:href="#M"/><use transform="matrix(0.05,0,0,0.05,22.950000000000003,0)" xlink:href="#E"/><use transform="matrix(0.05,0,0,0.05,28.900000000000002,0)" xlink:href="#N"/><use transform="matrix(0.05,0,0,0.05,37.900000000000006,0)" xlink:href="#M"/><use transform="matrix(0.05,0,0,0.05,47.900000000000006,0)" xlink:href="#O"/><use transform="matrix(0.05,0,0,0.05,57.900000000000006,0)" xlink:href="#P"/><use transform="matrix(0.05,0,0,0.05,62.900000000000006,0)" xlink:href="#Q"/><use transform="matrix(0.05,0,0,0.05,72.9,0)" xlink:href="#F"/><use transform="matrix(0.05,0,0,0.05,81.9,0)" xlink:href="#S"/><use transform="matrix(0.05,0,0,0.05,90.9,0)" xlink:href="#F"/><use transform="matrix(0.05,0,0,0.05,99.9,0)" xlink:href="#ad"/><use transform="matrix(0.05,0,0,0.05,103.85000000000001,0)" xlink:href="#C"/><use transform="matrix(0.05,0,0,0.05,113.85000000000001,0)" xlink:href="#Q"/><use transform="matrix(0.05,0,0,0.05,123.85000000000001,0)" xlink:href="#G"/><use transform="matrix(0.05,0,0,0.05,127.80000000000001,0)" xlink:href="#I"/></g><path d="M101-234c-31-9-42 10-38 44h38v23H63V0H32v-167H5v-23h27c-7-52 17-82 69-68v24" id="ae"/><g id="r"><use transform="matrix(0.05,0,0,0.05,0,0)" xlink:href="#ae"/><use transform="matrix(0.05,0,0,0.05,5,0)" xlink:href="#G"/><use transform="matrix(0.05,0,0,0.05,8.95,0)" xlink:href="#E"/><use transform="matrix(0.05,0,0,0.05,14.899999999999999,0)" xlink:href="#H"/><use transform="matrix(0.05,0,0,0.05,23.9,0)" xlink:href="#P"/><use transform="matrix(0.05,0,0,0.05,28.899999999999995,0)" xlink:href="#Q"/><use transform="matrix(0.05,0,0,0.05,38.9,0)" xlink:href="#Z"/><use transform="matrix(0.05,0,0,0.05,48.9,0)" xlink:href="#R"/><use transform="matrix(0.05,0,0,0.05,58.900000000000006,0)" xlink:href="#aa"/><use transform="matrix(0.05,0,0,0.05,73.85,0)" xlink:href="#C"/></g><g id="s"><use transform="matrix(0.05,0,0,0.05,0,0)" xlink:href="#ad"/><use transform="matrix(0.05,0,0,0.05,3.95,0)" xlink:href="#R"/><use transform="matrix(0.05,0,0,0.05,13.949999999999998,0)" xlink:href="#H"/><use transform="matrix(0.05,0,0,0.05,22.95,0)" xlink:href="#P"/><use transform="matrix(0.05,0,0,0.05,27.950000000000003,0)" xlink:href="#Q"/><use transform="matrix(0.05,0,0,0.05,37.95,0)" xlink:href="#Z"/><use transform="matrix(0.05,0,0,0.05,47.95,0)" xlink:href="#R"/><use transform="matrix(0.05,0,0,0.05,57.95,0)" xlink:href="#aa"/><use transform="matrix(0.05,0,0,0.05,72.9,0)" xlink:href="#C"/></g><g id="t"><use transform="matrix(0.05,0,0,0.05,0,0)" xlink:href="#C"/><use transform="matrix(0.05,0,0,0.05,10,0)" xlink:href="#aa"/><use transform="matrix(0.05,0,0,0.05,24.950000000000003,0)" xlink:href="#R"/><use transform="matrix(0.05,0,0,0.05,34.95,0)" xlink:href="#G"/><use transform="matrix(0.05,0,0,0.05,38.900000000000006,0)" xlink:href="#ad"/></g><g id="u"><use transform="matrix(0.05,0,0,0.05,0,0)" xlink:href="#ac"/><use transform="matrix(0.05,0,0,0.05,10,0)" xlink:href="#R"/><use transform="matrix(0.05,0,0,0.05,20,0)" xlink:href="#H"/><use transform="matrix(0.05,0,0,0.05,29,0)" xlink:href="#H"/><use transform="matrix(0.05,0,0,0.05,38,0)" xlink:href="#L"/><use transform="matrix(0.05,0,0,0.05,50.95,0)" xlink:href="#M"/><use transform="matrix(0.05,0,0,0.05,60.95,0)" xlink:href="#E"/><use transform="matrix(0.05,0,0,0.05,66.9,0)" xlink:href="#I"/></g><path d="M115-194c53 0 69 39 70 98 0 66-23 100-70 100C84 3 66-7 56-30L54 0H23l1-261h32v101c10-23 28-34 59-34zm-8 174c40 0 45-34 45-75 0-40-5-75-45-74-42 0-51 32-51 76 0 43 10 73 51 73" id="af"/><g id="v"><use transform="matrix(0.05,0,0,0.05,0,0)" xlink:href="#af"/><use transform="matrix(0.05,0,0,0.05,10,0)" xlink:href="#R"/><use transform="matrix(0.05,0,0,0.05,20,0)" xlink:href="#H"/><use transform="matrix(0.05,0,0,0.05,29,0)" xlink:href="#C"/><use transform="matrix(0.05,0,0,0.05,39,0)" xlink:href="#Q"/><use transform="matrix(0.05,0,0,0.05,49,0)" xlink:href="#C"/><use transform="matrix(0.05,0,0,0.05,59,0)" xlink:href="#D"/><use transform="matrix(0.05,0,0,0.05,68,0)" xlink:href="#C"/><use transform="matrix(0.05,0,0,0.05,78,0)" xlink:href="#E"/><use transform="matrix(0.05,0,0,0.05,83.95,0)" xlink:href="#F"/><use transform="matrix(0.05,0,0,0.05,92.95,0)" xlink:href="#G"/><use transform="matrix(0.05,0,0,0.05,96.9,0)" xlink:href="#H"/><use transform="matrix(0.05,0,0,0.05,105.9,0)" xlink:href="#C"/></g><g id="w"><use transform="matrix(0.05,0,0,0.05,0,0)" xlink:href="#Z"/><use transform="matrix(0.05,0,0,0.05,10,0)" xlink:href="#R"/><use transform="matrix(0.05,0,0,0.05,20,0)" xlink:href="#aa"/><use transform="matrix(0.05,0,0,0.05,34.95,0)" xlink:href="#C"/></g><g id="x"><use transform="matrix(0.05,0,0,0.05,0,0)" xlink:href="#aa"/><use transform="matrix(0.05,0,0,0.05,14.950000000000001,0)" xlink:href="#O"/><use transform="matrix(0.05,0,0,0.05,24.950000000000003,0)" xlink:href="#H"/><use transform="matrix(0.05,0,0,0.05,33.95,0)" xlink:href="#F"/><use transform="matrix(0.05,0,0,0.05,42.95,0)" xlink:href="#ad"/><use transform="matrix(0.05,0,0,0.05,46.900000000000006,0)" xlink:href="#C"/><use transform="matrix(0.05,0,0,0.05,56.900000000000006,0)" xlink:href="#Q"/><use transform="matrix(0.05,0,0,0.05,66.9,0)" xlink:href="#ab"/><use transform="matrix(0.05,0,0,0.05,76.9,0)" xlink:href="#E"/><use transform="matrix(0.05,0,0,0.05,82.85000000000001,0)" xlink:href="#M"/><use transform="matrix(0.05,0,0,0.05,92.85000000000001,0)" xlink:href="#O"/><use transform="matrix(0.05,0,0,0.05,102.85000000000001,0)" xlink:href="#ac"/></g><g id="y"><use transform="matrix(0.05,0,0,0.05,0,0)" xlink:href="#H"/><use transform="matrix(0.05,0,0,0.05,9,0)" xlink:href="#ac"/><use transform="matrix(0.05,0,0,0.05,19,0)" xlink:href="#C"/><use transform="matrix(0.05,0,0,0.05,29,0)" xlink:href="#F"/><use transform="matrix(0.05,0,0,0.05,38,0)" xlink:href="#G"/><use transform="matrix(0.05,0,0,0.05,41.95,0)" xlink:href="#ae"/><use transform="matrix(0.05,0,0,0.05,46.95,0)" xlink:href="#G"/><use transform="matrix(0.05,0,0,0.05,50.900000000000006,0)" xlink:href="#F"/><use transform="matrix(0.05,0,0,0.05,59.900000000000006,0)" xlink:href="#Q"/><use transform="matrix(0.05,0,0,0.05,69.9,0)" xlink:href="#ac"/><use transform="matrix(0.05,0,0,0.05,79.9,0)" xlink:href="#R"/><use transform="matrix(0.05,0,0,0.05,89.9,0)" xlink:href="#E"/><use transform="matrix(0.05,0,0,0.05,95.85000000000001,0)" xlink:href="#P"/><use transform="matrix(0.05,0,0,0.05,100.85000000000001,0)" xlink:href="#H"/></g><g id="z"><use transform="matrix(0.05,0,0,0.05,0,0)" xlink:href="#ad"/><use transform="matrix(0.05,0,0,0.05,3.95,0)" xlink:href="#C"/><use transform="matrix(0.05,0,0,0.05,13.949999999999998,0)" xlink:href="#T"/><use transform="matrix(0.05,0,0,0.05,22.95,0)" xlink:href="#C"/><use transform="matrix(0.05,0,0,0.05,32.95,0)" xlink:href="#ad"/></g><g id="A"><use transform="matrix(0.05,0,0,0.05,0,0)" xlink:href="#R"/><use transform="matrix(0.05,0,0,0.05,10,0)" xlink:href="#T"/><use transform="matrix(0.05,0,0,0.05,19,0)" xlink:href="#M"/><use transform="matrix(0.05,0,0,0.05,29,0)" xlink:href="#G"/><use transform="matrix(0.05,0,0,0.05,32.95,0)" xlink:href="#I"/><use transform="matrix(0.05,0,0,0.05,42.95,0)" xlink:href="#Q"/><use transform="matrix(0.05,0,0,0.05,52.95,0)" xlink:href="#ab"/><use transform="matrix(0.05,0,0,0.05,62.95,0)" xlink:href="#G"/><use transform="matrix(0.05,0,0,0.05,66.9,0)" xlink:href="#T"/><use transform="matrix(0.05,0,0,0.05,75.9,0)" xlink:href="#C"/><use transform="matrix(0.05,0,0,0.05,85.9,0)" xlink:href="#Z"/></g><g id="B"><use transform="matrix(0.05,0,0,0.05,0,0)" xlink:href="#aa"/><use transform="matrix(0.05,0,0,0.05,14.950000000000001,0)" xlink:href="#M"/><use transform="matrix(0.05,0,0,0.05,24.950000000000003,0)" xlink:href="#T"/><use transform="matrix(0.05,0,0,0.05,33.95,0)" xlink:href="#C"/><use transform="matrix(0.05,0,0,0.05,43.95,0)" xlink:href="#aa"/><use transform="matrix(0.05,0,0,0.05,58.900000000000006,0)" xlink:href="#C"/><use transform="matrix(0.05,0,0,0.05,68.9,0)" xlink:href="#Z"/><use transform="matrix(0.05,0,0,0.05,78.9,0)" xlink:href="#P"/><use transform="matrix(0.05,0,0,0.05,83.9,0)" xlink:href="#Q"/><use transform="matrix(0.05,0,0,0.05,93.9,0)" xlink:href="#P"/><use transform="matrix(0.05,0,0,0.05,98.9,0)" xlink:href="#S"/><use transform="matrix(0.05,0,0,0.05,107.9,0)" xlink:href="#ac"/><use transform="matrix(0.05,0,0,0.05,117.9,0)" xlink:href="#C"/></g></defs></g></svg>